<svg width="502" height="80" viewBox="0 0 502 80" fill="none" xmlns="http://www.w3.org/2000/svg">
<path d="M1.77507 0.125673C2.72511 0.575693 3.67515 1.05071 4.60019 1.50073C9.00037 3.62583 13.3756 5.77591 17.7757 7.901C23.876 10.8511 29.9512 13.8262 36.0515 16.7764C41.7517 19.5515 47.452 22.3266 53.1522 25.0767C57.5024 27.2018 61.8525 29.4269 66.3527 31.227C63.1526 30.577 59.7775 31.552 56.8273 32.802C54.2772 33.9021 51.8271 35.2522 49.302 36.4272C46.5519 37.7023 43.3768 37.7023 40.6017 36.4772L15.5506 25.3517C6.10025 21.1765 0 11.7012 0 1.25072C0 0.325682 0.950039 -0.274342 1.77507 0.125673Z" fill="url(#paint0_linear_1436_10)"/>
<path d="M78.2532 42.9274L10.7504 75.9038L2.77511 79.804C1.50006 80.429 0 79.4789 0 78.0539V75.3288C0 67.7035 4.17517 60.7532 10.7504 57.203C11.2005 56.953 11.6505 56.753 12.1005 56.528L48.502 40.0023L60.0025 34.8521C60.8525 34.4771 61.7275 34.1771 62.6276 33.9521C64.3776 33.5021 66.1777 33.352 67.9778 33.5021C69.9529 33.6771 71.878 34.2021 73.703 35.0771L78.2532 37.2772C80.6033 38.4273 80.6033 41.8024 78.2532 42.9274Z" fill="url(#paint1_linear_1436_10)"/>
<path d="M122.38 54.2528L118.679 45.9275L106.829 19.5764C104.454 14.2512 99.1786 10.801 93.3534 10.801H91.4033C90.3532 10.801 89.6782 11.9011 90.1282 12.8261L116.579 67.4783C117.379 69.1784 119.804 69.1534 120.629 67.4533L122.205 64.1782C123.705 61.0531 123.78 57.4279 122.38 54.2528ZM146.431 10.801C138.955 10.801 132.18 15.2262 129.155 22.0765L121.18 40.2022C120.304 42.2273 120.304 44.5024 121.205 46.5025C122.055 48.3276 123.03 50.1026 123.805 51.9527C124.73 54.1028 125.405 56.5529 124.955 58.853C126.23 55.6029 127.855 52.4527 129.355 49.3026C131.355 45.1774 133.33 41.0523 135.305 36.9271C137.43 32.5019 139.555 28.1017 141.68 23.6766C143.205 20.5014 144.73 17.3263 146.256 14.1512C146.606 13.4761 146.931 12.7761 147.256 12.1011C147.531 11.5011 147.106 10.801 146.431 10.801ZM416.517 10.801V57.1029C416.517 63.7782 421.942 69.2034 428.618 69.2034V22.9015C428.618 16.2263 423.192 10.801 416.517 10.801ZM386.841 57.5029V22.9015C386.841 16.2263 381.416 10.801 374.74 10.801V69.2034H412.117V57.5029H386.841ZM370.34 22.5015V10.801H332.989V69.2034H345.064V47.3025H365.79V35.677H345.064V22.5015H370.34ZM297.462 10.026C280.512 10.026 267.411 23.1265 267.411 40.0022C267.411 56.8779 280.437 69.9784 297.462 69.9784C314.488 69.9784 327.689 56.9529 327.689 40.0022C327.689 23.0515 314.413 10.026 297.462 10.026ZM297.462 58.053C287.412 58.053 279.812 50.3526 279.812 40.0022C279.812 29.6518 287.262 21.9515 297.462 21.9515C307.663 21.9515 315.213 29.6268 315.213 40.0022C315.213 50.3776 307.513 58.053 297.462 58.053ZM264.486 22.4265V10.801H226.334V69.2034H264.486V57.5779H238.434V44.9524H261.411V34.027H238.434V22.4265H264.486ZM188.632 10.801H168.781V69.2034H188.632C208.008 69.2034 220.984 57.5029 220.984 40.0022C220.984 22.5015 208.008 10.801 188.632 10.801ZM190.357 57.5029H180.857V22.5015H190.357C201.108 22.5015 208.583 29.6268 208.583 40.0022C208.583 50.3776 201.108 57.5029 190.357 57.5029ZM148.981 10.801V69.2034H161.081V22.9015C161.081 16.2263 155.656 10.801 148.981 10.801ZM467.169 47.6025L487.895 68.9784H484.07C477.27 68.9784 470.744 66.2533 465.969 61.4281L459.944 55.3278L458.844 54.3528L454.769 58.478C449.669 63.6282 445.268 67.0533 437.618 68.3784C435.843 68.6784 434.243 67.3033 434.243 65.5033C434.243 64.7532 434.543 64.0032 435.093 63.4532L451.669 46.9025L451.894 46.7275L450.369 45.1524L441.618 36.3021H441.643C436.768 31.3769 434.018 24.7266 434.018 17.8013C434.018 16.4013 435.718 15.7012 436.718 16.7013L459.019 39.2772L460.519 37.7271L463.094 35.127L478.67 19.5264C484.095 14.0762 491.495 11.026 499.196 11.026H501.671L469.019 43.7524L468.469 44.3024L466.144 46.7025L467.169 47.6025Z" fill="url(#paint2_linear_1436_10)"/>
<defs>
<linearGradient id="paint0_linear_1436_10" x1="33.1764" y1="37.4022" x2="33.1764" y2="0.000668188" gradientUnits="userSpaceOnUse">
<stop stop-color="#3547FF"/>
<stop offset="1" stop-color="#8903FF"/>
</linearGradient>
<linearGradient id="paint1_linear_1436_10" x1="-2.3501" y1="75.0038" x2="75.1531" y2="33.7521" gradientUnits="userSpaceOnUse">
<stop stop-color="#8903FF"/>
<stop offset="1" stop-color="#3547FF"/>
</linearGradient>
<linearGradient id="paint2_linear_1436_10" x1="63.2021" y1="74.3786" x2="521.872" y2="4.50075" gradientUnits="userSpaceOnUse">
<stop stop-color="#8903FF"/>
<stop offset="1" stop-color="#3547FF"/>
</linearGradient>
</defs>
</svg>
